<?xml version="1.0" standalone="no"?>
<!DOCTYPE svg PUBLIC "-//W3C//DTD SVG 20010904//EN"
 "http://www.w3.org/TR/2001/REC-SVG-20010904/DTD/svg10.dtd">
<svg version="1.0" xmlns="http://www.w3.org/2000/svg"
 width="613.000000pt" height="613.000000pt" viewBox="0 0 613.000000 613.000000"
 preserveAspectRatio="xMidYMid meet">
<metadata>
Created by potrace 1.11, written by Peter Selinger 2001-2013
</metadata>
<g transform="translate(0.000000,613.000000) scale(0.100000,-0.100000)"
fill="#000000" stroke="none">
<path d="M1295 4359 c-173 -28 -360 -131 -486 -267 -393 -426 -259 -1112 265
-1362 85 -40 236 -78 304 -77 28 1 54 -2 56 -8 3 -5 5 -4 5 4 1 11 4 11 16 1
8 -7 15 -9 15 -4 0 5 19 9 43 10 125 2 275 52 400 135 32 22 60 39 62 39 3 0
35 -19 72 -43 154 -98 299 -138 488 -133 189 5 328 52 495 167 12 8 28 2 68
-25 122 -81 283 -137 404 -140 37 0 68 -5 68 -9 0 -5 5 -5 11 -1 6 3 41 8 78
9 79 3 203 35 286 75 63 30 158 89 163 102 2 4 25 -8 51 -27 150 -108 317
-156 521 -151 144 4 249 30 365 91 308 162 481 466 462 813 -12 223 -102 420
-264 574 -113 107 -271 191 -418 221 -128 27 -360 11 -460 -32 -93 -39 -154
-71 -197 -102 l-52 -36 -45 32 c-74 52 -213 117 -278 130 -246 47 -457 17
-644 -91 -30 -18 -66 -41 -78 -52 -24 -18 -24 -18 -95 28 -83 54 -163 90 -261
115 -98 26 -303 26 -405 1 -88 -22 -223 -82 -289 -129 l-46 -33 -40 29 c-73
53 -197 109 -305 138 -54 14 -266 19 -335 8z m330 -238 c55 -16 171 -74 193
-96 2 -2 -7 -19 -21 -37 -40 -53 -85 -150 -113 -245 -24 -78 -27 -105 -27
-233 0 -128 3 -155 27 -233 25 -84 72 -187 116 -253 l21 -32 -49 -30 c-27 -16
-82 -43 -123 -58 -67 -25 -87 -28 -204 -28 -145 -1 -185 8 -310 72 -126 65
-255 215 -298 348 -82 245 -27 483 153 664 85 86 177 139 292 170 94 26 241
22 343 -9z m1019 14 c72 -15 180 -61 221 -93 l24 -19 -20 -29 c-52 -77 -106
-203 -131 -304 -17 -73 -19 -256 -3 -339 22 -112 85 -264 136 -330 l20 -25
-23 -18 c-39 -29 -128 -69 -197 -89 -51 -14 -91 -18 -181 -15 -121 4 -174 17
-275 69 -91 46 -90 42 -41 122 90 148 120 261 120 450 0 126 -3 149 -28 230
-27 87 -73 187 -116 252 l-21 31 63 36 c78 43 107 54 183 71 80 18 185 18 269
0z m1066 1 c70 -15 193 -67 233 -100 18 -14 18 -16 -11 -59 -108 -156 -157
-383 -130 -598 11 -88 55 -210 108 -301 56 -97 60 -89 -65 -148 -102 -48 -191
-65 -309 -57 -102 7 -156 21 -242 65 -99 51 -99 50 -67 97 43 63 92 170 115
253 30 105 32 323 4 427 -23 87 -70 195 -112 259 l-33 49 22 17 c114 89 323
130 487 96z m1075 -1 c94 -20 217 -82 288 -146 168 -150 238 -343 213 -584 -4
-33 -4 -33 -35 -120 -54 -149 -186 -290 -336 -360 -188 -87 -438 -68 -611 48
l-32 21 37 60 c88 145 121 256 126 426 7 191 -41 364 -144 514 l-20 30 35 24
c130 88 314 122 479 87z m-2770 -345 c89 -172 87 -389 -7 -574 -32 -64 -31
-64 -70 9 -50 94 -66 170 -63 293 2 125 20 198 73 295 28 52 27 52 67 -23z
m1095 -58 c30 -79 35 -115 35 -237 -1 -80 -6 -125 -19 -165 -20 -58 -73 -170
-81 -170 -9 0 -63 115 -80 170 -9 30 -19 96 -22 145 -6 114 14 214 63 314 l37
74 23 -39 c13 -21 33 -63 44 -92z m1039 71 c16 -32 36 -85 46 -118 9 -33 21
-67 25 -76 5 -9 7 -19 4 -21 -2 -3 -6 -49 -8 -104 -3 -108 -36 -225 -80 -290
l-23 -35 -26 48 c-95 183 -97 408 -6 591 18 34 34 62 35 62 2 0 17 -26 33 -57z"/>
<path d="M1840 2402 l-46 -3 -37 -72 c-21 -40 -56 -106 -78 -147 -22 -41 -81
-154 -131 -250 -118 -229 -179 -342 -190 -357 -7 -8 10 -12 64 -15 143 -6 138
-8 186 87 l42 85 243 0 243 0 42 -85 c37 -75 45 -85 69 -86 96 -2 176 0 180 5
3 3 1 11 -4 18 -6 7 -41 72 -78 143 -37 72 -88 168 -113 215 -24 47 -76 146
-114 220 -107 206 -128 240 -146 241 -9 0 -33 1 -52 2 -19 1 -55 1 -80 -1z
m215 -520 c-4 -4 -317 -3 -322 2 -2 2 33 77 78 167 l82 164 82 -165 c46 -91
82 -166 80 -168z"/>
<path d="M4019 2402 l-25 -3 1 -127 c1 -70 0 -132 -3 -138 -2 -9 -11 -8 -32 2
-43 22 -148 41 -210 39 -200 -8 -323 -113 -334 -284 -14 -222 126 -357 358
-346 71 3 175 34 207 61 22 20 29 17 29 -10 0 -14 5 -28 11 -32 8 -5 93 -8
149 -5 6 1 10 148 10 421 l0 420 -22 1 c-13 0 -43 1 -68 2 -25 1 -57 1 -71 -1z
m-84 -393 c35 -13 55 -27 56 -37 4 -46 5 -218 1 -229 -6 -19 -97 -53 -159 -59
-99 -10 -175 22 -210 89 -23 44 -22 137 2 174 55 85 181 110 310 62z"/>
<path d="M4418 2402 c-12 -2 -15 -19 -15 -82 l-1 -80 94 0 94 0 0 80 0 80 -27
1 c-16 0 -51 1 -79 2 -28 1 -57 1 -66 -1z"/>
<path d="M2552 2152 l-23 -4 2 -206 c2 -266 17 -310 123 -368 94 -51 265 -44
372 16 44 25 44 25 44 -5 0 -25 4 -27 65 -27 14 0 42 0 64 1 l39 1 -1 295 c0
239 -3 295 -14 296 -7 1 -35 1 -63 1 -27 0 -63 0 -78 -1 l-28 -1 1 -202 c1
-112 0 -208 -3 -215 -7 -22 -110 -53 -172 -53 -72 0 -120 21 -146 64 -16 27
-18 54 -19 213 0 100 -4 185 -8 189 -8 8 -113 12 -155 6z"/>
<path d="M4429 2152 l-26 -3 -1 -294 0 -294 37 -3 c20 -2 62 -1 93 0 l58 4 -1
294 c0 284 -1 294 -20 295 -68 3 -117 4 -140 1z"/>
</g>
</svg>
